<svg width="805" height="81" viewBox="0 0 805 81" fill="none" xmlns="http://www.w3.org/2000/svg">
<path d="M774.674 80.5546L801.34 0.554565H804.288L777.621 80.5546H774.674Z" fill="black"/>
<path d="M744.897 80.5546L771.564 0.554565H774.511L747.844 80.5546H744.897Z" fill="black"/>
<path d="M715.12 80.5546L741.787 0.554565H744.734L718.067 80.5546H715.12Z" fill="black"/>
<path d="M685.344 80.5546L712.01 0.554565H714.958L688.291 80.5546H685.344Z" fill="black"/>
<path d="M655.567 80.5546L682.234 0.554565H685.181L658.514 80.5546H655.567Z" fill="black"/>
<path d="M625.79 80.5546L652.457 0.554565H655.404L628.737 80.5546H625.79Z" fill="black"/>
<path d="M596.014 80.5546L622.68 0.554565H625.628L598.961 80.5546H596.014Z" fill="black"/>
<path d="M566.237 80.5546L592.904 0.554565H595.851L569.185 80.5546H566.237Z" fill="black"/>
<path d="M536.461 80.5546L563.128 0.554565H566.075L539.408 80.5546H536.461Z" fill="black"/>
<path d="M506.684 80.5546L533.351 0.554565H536.298L509.631 80.5546H506.684Z" fill="black"/>
<path d="M476.907 80.5546L503.574 0.554565H506.522L479.855 80.5546H476.907Z" fill="black"/>
<path d="M447.131 80.5546L473.797 0.554565H476.745L450.078 80.5546H447.131Z" fill="black"/>
<path d="M417.354 80.5546L444.021 0.554565H446.968L420.301 80.5546H417.354Z" fill="black"/>
<path d="M387.578 80.5546L414.245 0.554565H417.192L390.525 80.5546H387.578Z" fill="black"/>
<path d="M357.801 80.5546L384.468 0.554565H387.415L360.749 80.5546H357.801Z" fill="black"/>
<path d="M328.025 80.5546L354.691 0.554565H357.639L330.972 80.5546H328.025Z" fill="black"/>
<path d="M298.248 80.5546L324.915 0.554565H327.862L301.195 80.5546H298.248Z" fill="black"/>
<path d="M268.471 80.5546L295.138 0.554565H298.085L271.419 80.5546H268.471Z" fill="black"/>
<path d="M238.695 80.5546L265.361 0.554565H268.309L241.642 80.5546H238.695Z" fill="black"/>
<path d="M208.918 80.5546L235.585 0.554565H238.532L211.866 80.5546H208.918Z" fill="black"/>
<path d="M179.142 80.5546L205.809 0.554565H208.756L182.089 80.5546H179.142Z" fill="black"/>
<path d="M149.365 80.5546L176.032 0.554565H178.979L152.313 80.5546H149.365Z" fill="black"/>
<path d="M119.589 80.5546L146.255 0.554565H149.203L122.536 80.5546H119.589Z" fill="black"/>
<path d="M89.8118 80.5546L116.478 0.554565H119.426L92.7591 80.5546H89.8118Z" fill="black"/>
<path d="M60.0352 80.5546L86.7018 0.554565H89.6492L62.9825 80.5546H60.0352Z" fill="black"/>
<path d="M30.2585 80.5546L56.9252 0.554565H59.8726L33.2059 80.5546H30.2585Z" fill="black"/>
<path d="M0.482422 80.5546L27.1491 0.554565H30.0965L3.42979 80.5546H0.482422Z" fill="black"/>
</svg>
