<svg width="32" height="32" viewBox="0 0 32 32" fill="none" xmlns="http://www.w3.org/2000/svg">
<path d="M17.0016 0L18.6369 0.204004C25.4699 1.32003 30.9595 6.97615 31.8551 13.8563C31.9031 14.2323 31.8951 14.6443 31.987 15.0043C31.9591 15.6643 32.027 16.3444 31.987 17.0044C31.1874 30.6567 14.3508 37.0568 4.65108 27.2966C-5.04865 17.5364 1.39652 0.796018 15.0025 0H17.0016ZM12.8635 6.83215C8.55737 7.02015 6.97406 8.75219 6.81413 13.0323C6.74216 14.9163 6.74216 17.0924 6.81413 18.9764C6.97806 23.3565 8.65332 25.0326 13.0274 25.1966C14.9066 25.2686 17.0856 25.2686 18.9648 25.1966C23.3349 25.0326 25.0141 23.3525 25.178 18.9764C25.25 17.0924 25.25 14.9163 25.178 13.0323C25.0141 8.64819 23.3349 6.97615 18.9648 6.81215C17.0256 6.74015 14.7986 6.74815 12.8595 6.83215H12.8635Z" fill="black"/>
<path d="M15.8661 8.45619C17.0656 8.45619 18.473 8.43219 19.6605 8.5002C24.1305 8.7522 23.4788 12.2203 23.4948 15.6004C23.5028 16.9204 23.5748 18.3284 23.4988 19.6644C23.2509 24.1125 19.8244 23.4845 16.4659 23.5045C15.1265 23.5125 13.6991 23.5845 12.3437 23.5085C7.91764 23.2605 8.52538 19.8964 8.50938 16.5324C8.50139 15.1643 8.42542 13.7203 8.50539 12.3443C8.75727 7.85218 12.4357 8.46419 15.8661 8.45619ZM20.668 10.0202C20.4081 10.0642 20.0763 10.3202 19.9443 10.5442C19.3726 11.5243 20.5441 12.6483 21.4917 12.0323C22.5032 11.3723 21.9035 9.81222 20.668 10.0202ZM15.2984 11.3323C11.708 11.7363 10.0647 16.2764 12.3797 19.0324C14.7866 21.8965 19.5285 20.9285 20.5281 17.3164C21.4677 13.9203 18.7409 10.9442 15.2984 11.3323Z" fill="black"/>
<path d="M15.6143 12.9603C19.7524 12.4603 20.2922 18.7324 16.282 19.0684C12.2717 19.4044 11.732 13.4283 15.6143 12.9603Z" fill="black"/>
</svg>
