<svg width="32" height="32" viewBox="0 0 32 32" fill="none" xmlns="http://www.w3.org/2000/svg">
<g clip-path="url(#clip0_31_644)">
<path d="M17.0061 0L18.6436 0.205625C25.4786 1.3225 30.968 6.97438 31.8667 13.8525C31.9161 14.2281 31.9048 14.6394 32.0005 15V17C31.9042 17.36 31.9161 17.7719 31.8667 18.1475C30.9536 25.0381 25.4911 30.6619 18.6436 31.7944L17.0061 32H15.0067C14.6467 31.9038 14.2355 31.9156 13.8598 31.8662C6.80484 30.9306 1.06984 25.2144 0.146094 18.1475C0.0967188 17.7719 0.107969 17.3606 0.0123438 17C0.0410938 16.3388 -0.0264062 15.6594 0.0123438 15C0.476719 7.06375 7.07422 0.464375 15.0067 0H17.0061ZM9.05797 6.83C6.58172 7.125 6.64047 10.715 9.22922 10.8738C12.4642 11.0731 12.3848 6.43312 9.05797 6.83ZM25.378 24.1875V16.4688C25.378 16.0994 25.078 15.1025 24.9261 14.7337C24.043 12.5956 21.6592 11.7088 19.5042 12.405C18.5536 12.7119 17.998 13.3219 17.3811 14.0625V12.4375H13.5073V24.1875H17.3811V17.5312C17.3811 16.0269 18.8042 14.8506 20.2723 15.3888C20.9642 15.6425 21.5042 16.5681 21.5042 17.2812V24.1875H25.378ZM11.3836 24.1875V12.5312L11.2898 12.4375H7.54109L7.44734 12.5312V24.1875H11.3836Z" fill="black"/>
</g>
<defs>
<clipPath id="clip0_31_644">
<rect width="32" height="32" fill="white"/>
</clipPath>
</defs>
</svg>
