<?xml version="1.0" encoding="UTF-8"?>
<svg id="Layer_1" xmlns="http://www.w3.org/2000/svg" version="1.1" viewBox="0 0 800 800">
  <!-- Generator: Adobe Illustrator 29.1.0, SVG Export Plug-In . SVG Version: 2.1.0 Build 142)  -->
  <path d="M414.3,141l26.2,3.29c109.36,17.87,197.19,108.3,211.57,218.35.79,6.01.61,12.59,2.14,18.36v32c-1.54,5.76-1.35,12.35-2.14,18.36-14.61,110.25-102.01,200.23-211.57,218.35l-26.2,3.29h-31.99c-5.76-1.54-12.34-1.35-18.35-2.14-112.88-14.97-204.64-106.43-219.42-219.5-.79-6.01-.61-12.59-2.14-18.36.46-10.58-.62-21.45,0-32,7.43-126.98,112.99-232.57,239.91-240h31.99ZM287.13,250.28c-39.62,4.72-38.68,62.16,2.74,64.7,51.76,3.19,50.49-71.05-2.74-64.7ZM548.25,528v-123.5c0-5.91-4.8-21.86-7.23-27.76-14.13-34.21-52.27-48.4-86.75-37.26-15.21,4.91-24.1,14.67-33.97,26.52v-26h-61.98v188h61.98v-106.5c0-24.07,22.77-42.89,46.26-34.28,11.07,4.06,19.71,18.87,19.71,30.28v110.5h61.98ZM324.34,528v-186.5l-1.5-1.5h-59.98l-1.5,1.5v186.5h62.98Z"/>
</svg>