<svg width="322" height="23" viewBox="0 0 322 23" fill="none" xmlns="http://www.w3.org/2000/svg">
<path d="M310.15 17.312C301.918 17.312 298.774 14.36 298.774 11.096C298.774 7.85603 302.014 4.83203 310.15 4.83203C318.262 4.83203 321.526 7.85603 321.526 11.096C321.526 14.36 318.334 17.312 310.15 17.312ZM310.15 14.096C314.95 14.096 316.75 12.68 316.75 11.096C316.75 9.48803 314.95 8.04803 310.15 8.04803C305.302 8.04803 303.526 9.48803 303.526 11.096C303.526 12.656 305.302 14.096 310.15 14.096Z" fill="white"/>
<path d="M291.597 3.68001V0.536011H296.349V3.68001H291.597ZM291.597 17V5.14401H296.349V17H291.597Z" fill="white"/>
<path d="M275.724 17.312C269.46 17.312 267.852 15.2 267.852 13.496C267.852 11.6 269.34 10.088 273.804 10.088H284.196V9.89603C284.196 8.52803 282.66 7.66403 277.908 7.66403C273.996 7.66403 272.796 8.40803 272.796 9.08003C272.796 9.10403 272.796 9.20003 272.82 9.29603H268.428C268.38 9.08003 268.38 8.88803 268.38 8.81603C268.38 6.53603 271.38 4.83203 278.364 4.83203C285.492 4.83203 288.948 6.87203 288.948 10.256V17H284.196C284.244 16.16 284.316 15.152 284.316 14.384H284.292C283.524 16.088 280.98 17.312 275.724 17.312ZM277.092 14.576C281.652 14.576 284.196 13.304 284.196 12.392V12.296H275.364C273.252 12.296 272.244 12.512 272.244 13.208C272.244 14 273.468 14.576 277.092 14.576Z" fill="white"/>
<path d="M243.444 21.752V5.14403H248.196L248.148 7.66403H248.172C249.156 5.91203 252.06 4.83203 256.548 4.83203C263.148 4.83203 266.556 7.20803 266.556 10.832C266.556 15.104 262.692 17.312 256.572 17.312C251.892 17.312 249.228 16.328 248.124 14.816H248.076C248.124 15.344 248.196 16.448 248.196 17.168V21.752H243.444ZM255.372 14.096C259.524 14.096 261.804 13.064 261.804 10.952C261.804 9.24803 259.644 8.04803 255.324 8.04803C250.884 8.04803 248.22 9.41603 248.22 11.264V11.36C248.22 12.8 250.62 14.096 255.372 14.096Z" fill="white"/>
<path d="M206.836 17V5.14403H211.588L211.54 9.12803H211.564C212.284 6.56003 214.636 4.83203 218.908 4.83203C223.3 4.83203 225.436 6.51203 226.06 9.03203H226.108C226.972 6.53603 229.324 4.83203 233.596 4.83203C238.828 4.83203 240.964 7.30403 240.964 11.072V17H236.212V12.44C236.212 9.65603 234.844 8.38403 231.676 8.38403C228.556 8.38403 226.276 9.89603 226.276 12.968V17H221.524V12.44C221.524 9.65603 220.132 8.38403 216.964 8.38403C213.844 8.38403 211.588 9.89603 211.588 12.944V17H206.836Z" fill="white"/>
<path d="M191.227 17.312C184.963 17.312 183.355 15.2 183.355 13.496C183.355 11.6 184.843 10.088 189.307 10.088H199.699V9.89603C199.699 8.52803 198.163 7.66403 193.411 7.66403C189.499 7.66403 188.299 8.40803 188.299 9.08003C188.299 9.10403 188.299 9.20003 188.323 9.29603H183.931C183.883 9.08003 183.883 8.88803 183.883 8.81603C183.883 6.53603 186.883 4.83203 193.867 4.83203C200.995 4.83203 204.451 6.87203 204.451 10.256V17H199.699C199.747 16.16 199.819 15.152 199.819 14.384H199.795C199.027 16.088 196.483 17.312 191.227 17.312ZM192.595 14.576C197.155 14.576 199.699 13.304 199.699 12.392V12.296H190.867C188.755 12.296 187.747 12.512 187.747 13.208C187.747 14 188.971 14.576 192.595 14.576Z" fill="white"/>
<path d="M170.795 17.312C162.083 17.312 160.835 14.816 160.835 13.064H165.251C165.275 13.784 165.947 14.576 170.747 14.576C175.427 14.576 176.555 14.024 176.555 13.352C176.555 12.944 176.315 12.704 175.187 12.608C174.059 12.512 171.875 12.464 169.475 12.392C166.187 12.296 163.859 12.08 162.587 11.528C161.363 11 160.835 10.112 160.835 9.15203C160.835 6.58403 164.483 4.83203 170.795 4.83203C178.811 4.83203 180.395 6.92003 180.395 9.15203H175.979C175.955 8.36003 175.259 7.56803 170.963 7.56803C167.099 7.56803 165.563 8.12003 165.563 8.86403C165.563 9.27203 165.947 9.53603 167.003 9.65603C168.011 9.77603 170.171 9.75203 172.715 9.84803C175.091 9.94403 177.779 10.064 179.219 10.544C180.755 11.048 181.331 11.96 181.331 13.136C181.331 15.104 179.411 17.312 170.795 17.312Z" fill="white"/>
<path d="M135.909 17.312C129.645 17.312 128.037 15.2 128.037 13.496C128.037 11.6 129.525 10.088 133.989 10.088H144.381V9.89603C144.381 8.52803 142.845 7.66403 138.093 7.66403C134.181 7.66403 132.981 8.40803 132.981 9.08003C132.981 9.10403 132.981 9.20003 133.005 9.29603H128.613C128.565 9.08003 128.565 8.88803 128.565 8.81603C128.565 6.53603 131.565 4.83203 138.549 4.83203C145.677 4.83203 149.133 6.87203 149.133 10.256V17H144.381C144.429 16.16 144.501 15.152 144.501 14.384H144.477C143.709 16.088 141.165 17.312 135.909 17.312ZM137.277 14.576C141.837 14.576 144.381 13.304 144.381 12.392V12.296H135.549C133.437 12.296 132.429 12.512 132.429 13.208C132.429 14 133.653 14.576 137.277 14.576Z" fill="white"/>
<path d="M106.086 17V5.14403H110.838L110.766 8.64803H110.838C111.654 6.56003 113.91 4.83203 118.158 4.83203C123.942 4.83203 125.886 7.18403 125.886 10.784C125.886 11.24 125.838 12.008 125.742 12.56H121.398C121.422 12.344 121.47 11.936 121.47 11.408C121.47 9.70403 120.366 8.40803 116.79 8.40803C112.71 8.40803 110.838 10.4 110.838 12.968V17H106.086Z" fill="white"/>
<path d="M90.4765 17.312C84.2125 17.312 82.6045 15.2 82.6045 13.496C82.6045 11.6 84.0925 10.088 88.5565 10.088H98.9485V9.89603C98.9485 8.52803 97.4125 7.66403 92.6605 7.66403C88.7485 7.66403 87.5485 8.40803 87.5485 9.08003C87.5485 9.10403 87.5485 9.20003 87.5725 9.29603H83.1805C83.1325 9.08003 83.1325 8.88803 83.1325 8.81603C83.1325 6.53603 86.1325 4.83203 93.1165 4.83203C100.244 4.83203 103.7 6.87203 103.7 10.256V17H98.9485C98.9965 16.16 99.0685 15.152 99.0685 14.384H99.0445C98.2765 16.088 95.7325 17.312 90.4765 17.312ZM91.8445 14.576C96.4045 14.576 98.9485 13.304 98.9485 12.392V12.296H90.1165C88.0045 12.296 86.9965 12.512 86.9965 13.208C86.9965 14 88.2205 14.576 91.8445 14.576Z" fill="white"/>
<path d="M65.1737 22.232C63.8297 22.232 62.3657 22.016 61.6217 21.872V18.704C62.2937 18.848 63.4457 19.016 64.5977 19.016C66.7097 19.016 67.6457 18.512 68.7017 17H68.0537L58.5497 5.14404H64.6217L71.1017 13.4H71.1737L76.8617 5.14404H82.1897L73.8617 16.808C71.0537 20.744 69.4457 22.232 65.1737 22.232Z" fill="white"/>
<path d="M44.8794 17.312C38.6154 17.312 37.0074 15.2 37.0074 13.496C37.0074 11.6 38.4954 10.088 42.9594 10.088H53.3514V9.89603C53.3514 8.52803 51.8154 7.66403 47.0634 7.66403C43.1514 7.66403 41.9514 8.40803 41.9514 9.08003C41.9514 9.10403 41.9514 9.20003 41.9754 9.29603H37.5835C37.5355 9.08003 37.5354 8.88803 37.5354 8.81603C37.5354 6.53603 40.5354 4.83203 47.5194 4.83203C54.6474 4.83203 58.1034 6.87203 58.1034 10.256V17H53.3514C53.3994 16.16 53.4715 15.152 53.4715 14.384H53.4474C52.6794 16.088 50.1354 17.312 44.8794 17.312ZM46.2475 14.576C50.8075 14.576 53.3514 13.304 53.3514 12.392V12.296H44.5194C42.4074 12.296 41.3995 12.512 41.3995 13.208C41.3995 14 42.6235 14.576 46.2475 14.576Z" fill="white"/>
<path d="M0.735779 17V5.14403H5.48778L5.43978 9.12803H5.46378C6.18378 6.56003 8.53578 4.83203 12.8078 4.83203C17.1998 4.83203 19.3358 6.51203 19.9598 9.03203H20.0078C20.8718 6.53603 23.2238 4.83203 27.4958 4.83203C32.7278 4.83203 34.8638 7.30403 34.8638 11.072V17H30.1118V12.44C30.1118 9.65603 28.7438 8.38403 25.5758 8.38403C22.4558 8.38403 20.1758 9.89603 20.1758 12.968V17H15.4238V12.44C15.4238 9.65603 14.0318 8.38403 10.8638 8.38403C7.74378 8.38403 5.48778 9.89603 5.48778 12.944V17H0.735779Z" fill="white"/>
</svg>
