<svg width="220" height="81" viewBox="0 0 220 81" fill="none" xmlns="http://www.w3.org/2000/svg">
<path d="M189.52 80.5546L216.186 0.554565H219.134L192.467 80.5546H189.52Z" fill="black"/>
<path d="M173.79 80.5546L200.456 0.554565H203.404L176.737 80.5546H173.79Z" fill="black"/>
<path d="M158.059 80.5546L184.726 0.554565H187.673L161.007 80.5546H158.059Z" fill="black"/>
<path d="M142.329 80.5546L168.996 0.554565H171.943L145.276 80.5546H142.329Z" fill="black"/>
<path d="M126.599 80.5546L153.266 0.554565H156.213L129.546 80.5546H126.599Z" fill="black"/>
<path d="M110.869 80.5546L137.535 0.554565H140.483L113.816 80.5546H110.869Z" fill="black"/>
<path d="M95.1384 80.5546L121.805 0.554565H124.752L98.0857 80.5546H95.1384Z" fill="black"/>
<path d="M79.408 80.5546L106.075 0.554565H109.022L82.3553 80.5546H79.408Z" fill="black"/>
<path d="M63.6777 80.5546L90.3444 0.554565H93.2918L66.6251 80.5546H63.6777Z" fill="black"/>
<path d="M47.9475 80.5546L74.6141 0.554565H77.5615L50.8948 80.5546H47.9475Z" fill="black"/>
<path d="M32.2173 80.5546L58.8839 0.554565H61.8313L35.1646 80.5546H32.2173Z" fill="black"/>
<path d="M16.4871 80.5546L43.1537 0.554565H46.1011L19.4344 80.5546H16.4871Z" fill="black"/>
<path d="M0.756836 80.5546L27.4235 0.554565H30.3708L3.7042 80.5546H0.756836Z" fill="black"/>
</svg>
